<svg width="55" height="55" viewBox="0 0 55 55" fill="none" xmlns="http://www.w3.org/2000/svg">
<path d="M46.2401 37.8702C44.5792 37.8702 43.0301 38.3328 41.7055 39.1211L41.303 38.7276C42.2106 37.3147 42.8608 35.7827 43.2391 34.1659H45.4215C46.2551 34.1659 46.9332 33.5029 46.9332 32.6878V28.9814C46.9332 28.1667 46.2551 27.5033 45.4215 27.5033H43.2391C42.8608 25.8861 42.2106 24.3545 41.3035 22.9416L42.8489 21.4301C43.4385 20.8537 43.4385 19.9154 42.8489 19.339L40.1687 16.7184C39.5796 16.1416 38.6196 16.1425 38.0305 16.7184L36.4846 18.2299C35.6737 17.7321 34.8214 17.3225 33.9398 16.9857C35.9106 15.4139 37.1722 13.0235 37.1722 10.3485C37.1722 5.62617 33.2426 1.78406 28.4123 1.78406C23.582 1.78406 19.6524 5.62617 19.6524 10.3485C19.6524 13.0231 20.9145 15.4139 22.8848 16.9857C22.0033 17.3225 21.1504 17.7321 20.3396 18.2299L18.7942 16.7184C18.2046 16.1425 17.245 16.1425 16.656 16.7184L13.9753 19.339C13.3862 19.9154 13.3862 20.8537 13.9753 21.4301L15.5212 22.9416C14.6136 24.3545 13.9634 25.8861 13.5851 27.5033H11.4027C10.569 27.5033 9.891 28.1663 9.891 28.9814V32.6878C9.891 33.5029 10.569 34.1659 11.4027 34.1659H13.5851C13.9634 35.7827 14.6132 37.3143 15.5212 38.7276L15.1187 39.1211C13.7937 38.3328 12.245 37.8702 10.5841 37.8702C5.75426 37.8702 1.82422 41.7123 1.82422 46.4351C1.82422 51.1578 5.7538 55 10.5841 55C15.4144 55 19.344 51.1578 19.344 46.4351C19.344 45.8091 19.2705 45.1997 19.1396 44.6117L20.3396 43.4384C21.7847 44.3257 23.3511 44.9615 25.0052 45.3313V47.4652C25.0052 48.2803 25.6832 48.9432 26.5169 48.9432H30.3073C31.1409 48.9432 31.819 48.2803 31.819 47.4652V45.3313C33.4731 44.9615 35.0395 44.3257 36.4846 43.4388L37.6846 44.6117C37.5537 45.2002 37.4802 45.8091 37.4802 46.4351C37.4802 51.1578 41.4098 55 46.2401 55C51.0704 55 55 51.1578 55 46.4351C55 41.7123 51.0704 37.8702 46.2401 37.8702V37.8702Z" fill="white"/>
<path d="M26.5872 37.7872C31.5221 37.7872 35.5227 33.8756 35.5227 29.0505C35.5227 24.2254 31.5221 20.3138 26.5872 20.3138C21.6522 20.3138 17.6516 24.2254 17.6516 29.0505C17.6516 33.8756 21.6522 37.7872 26.5872 37.7872Z" fill="#D5F5FB"/>
<path d="M26.5872 21.6522C31.2911 21.6522 35.1376 25.2079 35.488 29.7197C35.5054 29.498 35.5227 29.2763 35.5227 29.0505C35.5227 24.2256 31.522 20.3138 26.5872 20.3138C21.6524 20.3138 17.6516 24.2251 17.6516 29.0505C17.6516 29.2763 17.669 29.498 17.6863 29.7197C18.0367 25.2079 21.8833 21.6522 26.5872 21.6522V21.6522Z" fill="white"/>
<path d="M43.5964 26.1649H41.0453C40.6629 24.3233 39.9201 22.6106 38.8948 21.0964L40.7008 19.3306C41.1133 18.9273 41.1133 18.2741 40.7008 17.8708L38.0205 15.2502C37.6085 14.8469 36.94 14.8469 36.5275 15.2502L34.7215 17.016C33.6287 16.3085 32.4328 15.7419 31.1629 15.3363C29.8506 16.1858 28.2787 16.6832 26.5868 16.6832C24.8948 16.6832 23.3234 16.1858 22.0106 15.3363C20.7403 15.7419 19.5448 16.3085 18.452 17.016L16.646 15.2502C16.234 14.8469 15.5655 14.8469 15.153 15.2502L12.4728 17.8708C12.0603 18.2741 12.0603 18.9273 12.4728 19.3306L14.2788 21.0964C13.2535 22.6106 12.5106 24.3233 12.1283 26.1649H9.57713C8.99399 26.1649 8.52173 26.6271 8.52173 27.1968V30.9029C8.52173 31.4731 8.99445 31.9348 9.57713 31.9348H12.1283C12.5106 33.7764 13.2535 35.4892 14.2788 37.0033L13.3653 37.8965C15.0581 39.0025 16.3038 40.7031 16.8084 42.6907L18.452 41.0837C20.0007 42.0862 21.7524 42.8125 23.6359 43.1863V45.6802C23.6359 46.2504 24.1086 46.7121 24.6913 46.7121H28.4817C29.0649 46.7121 29.5371 46.2499 29.5371 45.6802V43.1863C31.4207 42.8125 33.1724 42.0862 34.7211 41.0837L36.3642 42.6907C36.8688 40.7031 38.1145 39.0029 39.8074 37.8965L38.8939 37.0033C39.9191 35.4892 40.662 33.7764 41.0444 31.9348H43.5955C44.1786 31.9348 44.6509 31.4726 44.6509 30.9029V27.1968C44.6523 26.6271 44.1795 26.1649 43.5964 26.1649V26.1649ZM26.5872 37.7872C21.6524 37.7872 17.6517 33.8755 17.6517 29.0505C17.6517 24.2256 21.6524 20.3139 26.5872 20.3139C31.522 20.3139 35.5228 24.2251 35.5228 29.0505C35.5228 33.8755 31.522 37.7868 26.5872 37.7872Z" fill="#0F53FA"/>
<path d="M26.5873 16.6837C31.1732 16.6837 34.8909 13.0488 34.8909 8.56494C34.8909 4.08106 31.1732 0.446167 26.5873 0.446167C22.0013 0.446167 18.2837 4.08106 18.2837 8.56494C18.2837 13.0488 22.0013 16.6837 26.5873 16.6837Z" fill="#D5F5FB"/>
<path d="M28.7765 7.8042H28.395C27.8858 8.162 27.263 8.37525 26.5872 8.37525C25.9114 8.37525 25.2881 8.162 24.7794 7.8042H24.3979C22.8858 7.8042 21.6602 9.00252 21.6602 10.481V12.2937C21.6602 12.7862 22.0685 13.1859 22.5727 13.1859H30.6016C31.1058 13.1859 31.5142 12.7862 31.5142 12.2937V10.481C31.5142 9.00252 30.2886 7.8042 28.7765 7.8042Z" fill="#D5F5FB"/>
<path d="M26.5872 8.37531C28.2968 8.37531 29.6827 7.02606 29.6827 5.36167C29.6827 3.69728 28.2968 2.34802 26.5872 2.34802C24.8776 2.34802 23.4917 3.69728 23.4917 5.36167C23.4917 7.02606 24.8776 8.37531 26.5872 8.37531Z" fill="white"/>
<path d="M44.4149 52.7693C49.0009 52.7693 52.7185 49.1344 52.7185 44.6505C52.7185 40.1666 49.0009 36.5317 44.4149 36.5317C39.829 36.5317 36.1113 40.1666 36.1113 44.6505C36.1113 49.1344 39.829 52.7693 44.4149 52.7693Z" fill="#D5F5FB"/>
<path d="M46.6044 43.8898H46.2229C45.7137 44.2476 45.0908 44.4608 44.4151 44.4608C43.7393 44.4608 43.116 44.2476 42.6072 43.8898H42.2258C40.7136 43.8898 39.488 45.0881 39.488 46.5666V48.3792C39.488 48.8722 39.8964 49.2715 40.4006 49.2715H48.4295C48.9337 49.2715 49.3421 48.8722 49.3421 48.3792V46.5666C49.3421 45.0881 48.1165 43.8898 46.6044 43.8898Z" fill="#D5F5FB"/>
<path d="M44.4151 44.4609C46.1246 44.4609 47.5105 43.1116 47.5105 41.4472C47.5105 39.7828 46.1246 38.4336 44.4151 38.4336C42.7055 38.4336 41.3196 39.7828 41.3196 41.4472C41.3196 43.1116 42.7055 44.4609 44.4151 44.4609Z" fill="white"/>
<path d="M8.7594 52.7693C13.3454 52.7693 17.063 49.1344 17.063 44.6505C17.063 40.1666 13.3454 36.5317 8.7594 36.5317C4.17346 36.5317 0.455811 40.1666 0.455811 44.6505C0.455811 49.1344 4.17346 52.7693 8.7594 52.7693Z" fill="#D5F5FB"/>
<path d="M10.9488 43.8898H10.5674C10.0582 44.2476 9.43532 44.4608 8.75956 44.4608C8.08379 44.4608 7.46049 44.2476 6.95173 43.8898H6.57027C5.05812 43.8898 3.83252 45.0881 3.83252 46.5666V48.3792C3.83252 48.8722 4.2409 49.2715 4.7451 49.2715H12.774C13.2782 49.2715 13.6866 48.8722 13.6866 48.3792V46.5666C13.6866 45.0881 12.4605 43.8898 10.9488 43.8898V43.8898Z" fill="#D5F5FB"/>
<path d="M8.75954 44.4609C10.4691 44.4609 11.855 43.1116 11.855 41.4472C11.855 39.7828 10.4691 38.4336 8.75954 38.4336C7.04996 38.4336 5.66406 39.7828 5.66406 41.4472C5.66406 43.1116 7.04996 44.4609 8.75954 44.4609Z" fill="white"/>
<path d="M28.7765 28.7213H28.395C27.8858 29.0791 27.263 29.2924 26.5872 29.2924C25.9114 29.2924 25.2881 29.0791 24.7794 28.7213H24.3979C22.8858 28.7213 21.6602 29.9196 21.6602 31.3981V33.2108C21.6602 33.7038 22.0685 34.103 22.5727 34.103H30.6016C31.1058 34.103 31.5142 33.7038 31.5142 33.2108V31.3981C31.5142 29.9196 30.2886 28.7213 28.7765 28.7213Z" fill="#0F53FA"/>
<path d="M26.5872 29.2923C28.2968 29.2923 29.6827 27.943 29.6827 26.2787C29.6827 24.6143 28.2968 23.265 26.5872 23.265C24.8776 23.265 23.4917 24.6143 23.4917 26.2787C23.4917 27.943 24.8776 29.2923 26.5872 29.2923Z" fill="white"/>
<path d="M26.5872 19.8677C21.4083 19.8677 17.1953 23.9868 17.1953 29.0505C17.1953 34.1141 21.4083 38.2333 26.5872 38.2333C31.7661 38.2333 35.979 34.1141 35.979 29.0505C35.979 23.9868 31.7661 19.8677 26.5872 19.8677V19.8677ZM26.5872 37.341C21.9115 37.341 18.1079 33.622 18.1079 29.0505C18.1079 24.4789 21.9115 20.7599 26.5872 20.7599C31.2628 20.7599 35.0664 24.4789 35.0664 29.0505C35.0664 33.622 31.2628 37.341 26.5872 37.341Z" fill="black"/>
<path d="M31.9705 12.2937V10.481C31.9705 8.97801 30.8768 7.72526 29.4276 7.43036C29.872 6.85262 30.139 6.13791 30.139 5.36208C30.139 3.45441 28.5456 1.90186 26.5872 1.90186C24.6288 1.90186 23.0354 3.45396 23.0354 5.36208C23.0354 6.13791 23.3023 6.85262 23.7468 7.43036C22.2976 7.72526 21.2039 8.97801 21.2039 10.481V12.2937C21.2039 13.0316 21.818 13.6321 22.5727 13.6321H30.6016C31.3563 13.6321 31.9705 13.0316 31.9705 12.2937V12.2937ZM26.5872 2.79368C28.0423 2.79368 29.2264 3.9456 29.2264 5.36163C29.2264 6.77722 28.0423 7.92914 26.5872 7.92914C25.1321 7.92914 23.948 6.77722 23.948 5.36163C23.948 3.9456 25.1321 2.79368 26.5872 2.79368V2.79368ZM22.1164 12.2937V10.481C22.1164 9.25104 23.1399 8.25036 24.3979 8.25036H24.6375C25.1978 8.61039 25.8676 8.82141 26.5872 8.82141C27.3068 8.82141 27.977 8.61039 28.5369 8.25036H28.776C30.034 8.25036 31.0575 9.25104 31.0575 10.481V12.2937C31.0575 12.54 30.8531 12.7398 30.6012 12.7398H22.5727C22.3209 12.7398 22.1164 12.54 22.1164 12.2937Z" fill="black"/>
<path d="M44.415 36.0857C42.7541 36.0857 41.2054 36.5483 39.8803 37.3366L39.4783 36.9431C40.3854 35.5302 41.0357 33.9986 41.4139 32.3814H43.5964C44.43 32.3814 45.1081 31.7184 45.1081 30.9033V27.1973C45.1081 26.3822 44.43 25.7193 43.5964 25.7193H41.4139C41.0357 24.102 40.3854 22.5704 39.4783 21.1575L41.0238 19.646C41.6129 19.0701 41.6133 18.1318 41.0238 17.555L38.3435 14.9344C38.0579 14.6551 37.6787 14.5012 37.2744 14.5012C36.8702 14.5016 36.4905 14.6555 36.2054 14.9348L34.6594 16.4459C33.8477 15.9471 32.9926 15.5407 32.1088 15.2056C34.0827 13.6339 35.3471 11.2417 35.3471 8.5649C35.3471 3.84212 31.4175 0 26.5872 0C21.7569 0 17.8273 3.84212 17.8273 8.5649C17.8273 11.2417 19.0917 13.6339 21.0656 15.2056C20.1818 15.5402 19.3267 15.9471 18.5145 16.4459L16.969 14.9348C16.6834 14.6555 16.3038 14.5016 15.8999 14.5012C15.4961 14.5012 15.1165 14.6551 14.8313 14.9344L12.151 17.5554C11.5615 18.1318 11.5615 19.0696 12.151 19.646L13.697 21.1575C12.7894 22.5704 12.1392 24.102 11.7609 25.7193H9.57801C8.74437 25.7193 8.06632 26.3822 8.06632 27.1973V30.9033C8.06632 31.7184 8.74437 32.3814 9.57801 32.3814H11.7609C12.1392 33.9986 12.7889 35.5302 13.697 36.9431L13.2945 37.3366C11.9694 36.5483 10.4208 36.0857 8.75988 36.0857C3.92958 36.0857 0 39.9278 0 44.6506C0 49.3733 3.92958 53.2155 8.75988 53.2155C13.5897 53.2155 17.5198 49.3733 17.5198 44.6506C17.5198 44.0246 17.4463 43.4152 17.3153 42.8272L18.5154 41.6539C19.9605 42.5412 21.5265 43.177 23.181 43.5468V45.6807C23.181 46.4958 23.859 47.1587 24.6927 47.1587H28.4831C29.3167 47.1587 29.9948 46.4958 29.9948 45.6807V43.5468C31.6493 43.177 33.2157 42.5412 34.6604 41.6543L35.8604 42.8272C35.7294 43.4157 35.656 44.0246 35.656 44.6506C35.656 49.3733 39.5856 53.2155 44.4159 53.2155C49.2462 53.2155 53.1758 49.3733 53.1758 44.6506C53.1758 39.9278 49.2453 36.0857 44.415 36.0857V36.0857ZM18.7399 8.56535C18.7399 4.33465 22.2602 0.892717 26.5872 0.892717C30.9142 0.892717 34.4345 4.33465 34.4345 8.56535C34.4345 12.7956 30.9142 16.2375 26.5872 16.2375C22.2602 16.2375 18.7399 12.7956 18.7399 8.56535V8.56535ZM8.75943 52.3236C4.43242 52.3236 0.912127 48.8817 0.912127 44.651C0.912127 40.4203 4.43242 36.9784 8.75943 36.9784C13.0864 36.9784 16.6067 40.4203 16.6067 44.651C16.6067 48.8817 13.0864 52.3236 8.75943 52.3236V52.3236ZM35.0446 40.7687C34.8908 40.6184 34.6503 40.5952 34.4701 40.7121C32.9324 41.7074 31.2427 42.3936 29.4468 42.75C29.2341 42.792 29.0813 42.9749 29.0813 43.1868V45.6807C29.0813 46.0041 28.8125 46.2665 28.4822 46.2665H24.6918C24.3614 46.2665 24.0926 46.0037 24.0926 45.6807V43.1868C24.0926 42.9744 23.9398 42.7915 23.7272 42.75C21.9316 42.3931 20.242 41.7074 18.7043 40.7121C18.6272 40.6626 18.5396 40.638 18.4524 40.638C18.3347 40.638 18.2179 40.6826 18.1294 40.7687L17.0265 41.8466C16.4562 40.2436 15.414 38.8597 14.0602 37.8483L14.6013 37.3192C14.7546 37.1693 14.7788 36.9346 14.6588 36.7575C13.6408 35.2541 12.9395 33.6016 12.5749 31.846C12.5316 31.6381 12.345 31.4887 12.1278 31.4887H9.57664C9.24629 31.4887 8.97753 31.2259 8.97753 30.9029V27.1969C8.97753 26.8734 9.24629 26.6111 9.57664 26.6111H12.1278C12.345 26.6111 12.5316 26.4616 12.5749 26.2537C12.9395 24.4982 13.6404 22.8457 14.6588 21.3422C14.7788 21.1655 14.7546 20.9304 14.6013 20.7805L12.7953 19.0147C12.5617 18.7863 12.5617 18.4142 12.7953 18.1863L15.4756 15.5652C15.5887 15.4546 15.7393 15.3934 15.899 15.3934C16.0592 15.3934 16.2093 15.4546 16.3229 15.5657L18.1289 17.3315C18.2822 17.4818 18.5227 17.505 18.7034 17.3881C19.7268 16.7252 20.8219 16.2103 21.9677 15.8284C23.3106 16.6475 24.8902 17.1294 26.5863 17.1294C28.2823 17.1294 29.862 16.648 31.2049 15.8284C32.3506 16.2103 33.4457 16.7252 34.4687 17.3881C34.6494 17.5046 34.8899 17.4814 35.0436 17.3315L36.8496 15.5657C37.076 15.3435 37.4707 15.3439 37.697 15.5652L40.3772 18.1858C40.6109 18.4147 40.6109 18.7868 40.3772 19.0147L38.5712 20.7805C38.4179 20.9304 38.3933 21.1651 38.5133 21.3422C39.5313 22.8457 40.233 24.4982 40.5967 26.2537C40.6401 26.4616 40.8271 26.6111 41.0439 26.6111H43.595C43.9258 26.6111 44.1941 26.8738 44.1941 27.1969V30.9029C44.1941 31.2263 43.9254 31.4887 43.595 31.4887H41.0439C40.8267 31.4887 40.6396 31.6381 40.5967 31.846C40.2326 33.6016 39.5313 35.2541 38.5133 36.7575C38.3933 36.9342 38.4179 37.1693 38.5712 37.3192L39.1124 37.8483C37.7586 38.8593 36.7164 40.2436 36.146 41.8466L35.0446 40.7687ZM44.415 52.3236C40.0879 52.3236 36.5677 48.8817 36.5677 44.651C36.5677 40.4203 40.0879 36.9784 44.415 36.9784C48.742 36.9784 52.2623 40.4203 52.2623 44.651C52.2623 48.8817 48.7424 52.3236 44.415 52.3236Z" fill="black"/>
<path d="M47.2553 43.5161C47.7001 42.9383 47.9671 42.2236 47.9671 41.4473C47.9671 39.5397 46.3737 37.9875 44.4153 37.9875C42.4569 37.9875 40.8635 39.5397 40.8635 41.4473C40.8635 42.2236 41.1305 42.9383 41.5753 43.5161C40.1262 43.811 39.032 45.0637 39.032 46.5667V48.3794C39.032 49.1173 39.6462 49.7178 40.4009 49.7178H48.4298C49.1845 49.7178 49.7986 49.1173 49.7986 48.3794V46.5667C49.7982 45.0637 48.7044 43.811 47.2553 43.5161ZM44.4149 38.8798C45.87 38.8798 47.054 40.0317 47.054 41.4473C47.054 42.8629 45.87 44.0148 44.4149 44.0148C42.9597 44.0148 41.7757 42.8629 41.7757 41.4473C41.7757 40.0317 42.9597 38.8798 44.4149 38.8798ZM48.8856 48.3798C48.8856 48.6261 48.6812 48.826 48.4293 48.826H40.4004C40.1485 48.826 39.9441 48.6261 39.9441 48.3798V46.5672C39.9441 45.3372 40.9676 44.3365 42.2256 44.3365H42.4656C43.0259 44.6961 43.6953 44.9071 44.4149 44.9071C45.1344 44.9071 45.8038 44.6961 46.3641 44.3365H46.6041C47.8621 44.3365 48.8856 45.3372 48.8856 46.5672V48.3798Z" fill="black"/>
<path d="M11.5993 43.5161C12.0441 42.9383 12.3111 42.2236 12.3111 41.4473C12.3111 39.5397 10.7177 37.9875 8.7593 37.9875C6.8009 37.9875 5.20753 39.5397 5.20753 41.4473C5.20753 42.2236 5.47446 42.9383 5.91935 43.5161C4.47016 43.811 3.37598 45.0637 3.37598 46.5667V48.3794C3.37598 49.1173 3.99014 49.7178 4.74485 49.7178H12.7738C13.5285 49.7178 14.1426 49.1173 14.1426 48.3794V46.5667C14.1426 45.0637 13.0484 43.811 11.5993 43.5161ZM8.7593 38.8798C10.2144 38.8798 11.3985 40.0317 11.3985 41.4473C11.3985 42.8629 10.2144 44.0148 8.7593 44.0148C7.30419 44.0148 6.12011 42.8629 6.12011 41.4473C6.12011 40.0317 7.30373 38.8798 8.7593 38.8798ZM13.23 48.3798C13.23 48.6261 13.0252 48.826 12.7738 48.826H4.74439C4.49298 48.826 4.2881 48.6261 4.2881 48.3798V46.5672C4.2881 45.3372 5.31156 44.3365 6.56956 44.3365H6.80957C7.3699 44.6961 8.03928 44.9071 8.75885 44.9071C9.47842 44.9071 10.1478 44.6961 10.7081 44.3365H10.9481C12.2061 44.3365 13.2296 45.3372 13.2296 46.5672V48.3798H13.23Z" fill="black"/>
<path d="M28.0322 33.6573H25.2566C25.0047 33.6573 24.8003 33.8568 24.8003 34.1035C24.8003 34.3502 25.0047 34.5496 25.2566 34.5496H28.0322C28.2841 34.5496 28.4885 34.3502 28.4885 34.1035C28.4885 33.8568 28.2841 33.6573 28.0322 33.6573Z" fill="black"/>
<path d="M29.4271 28.3475C29.872 27.7697 30.139 27.055 30.139 26.2787C30.139 24.3711 28.5456 22.819 26.5872 22.819C24.6288 22.819 23.0354 24.3711 23.0354 26.2787C23.0354 27.055 23.3023 27.7697 23.7472 28.3475C22.2976 28.6424 21.2039 29.8951 21.2039 31.3982V33.2108C21.2039 33.9487 21.818 34.5492 22.5727 34.5492H23.8116C24.0634 34.5492 24.2679 34.3498 24.2679 34.1031C24.2679 33.8564 24.0634 33.6569 23.8116 33.6569H22.5727C22.3213 33.6569 22.1164 33.4571 22.1164 33.2108V31.3982C22.1164 30.1682 23.1399 29.1675 24.3979 29.1675H24.6379C25.1982 29.5271 25.8676 29.7381 26.5872 29.7381C27.3068 29.7381 27.9761 29.5271 28.5365 29.1675H28.7765C30.0345 29.1675 31.0579 30.1682 31.0579 31.3982V33.2108C31.0579 33.4571 30.8535 33.6569 30.6016 33.6569H29.439C29.1867 33.6569 28.9827 33.8564 28.9827 34.1031C28.9827 34.3498 29.1867 34.5492 29.439 34.5492H30.6016C31.3563 34.5492 31.9705 33.9487 31.9705 33.2108V31.3982C31.9705 29.8951 30.8763 28.6424 29.4271 28.3475V28.3475ZM23.948 26.2787C23.948 24.8632 25.1321 23.7112 26.5872 23.7112C28.0423 23.7112 29.2264 24.8632 29.2264 26.2787C29.2264 27.6943 28.0423 28.8463 26.5872 28.8463C25.1321 28.8463 23.948 27.6943 23.948 26.2787V26.2787Z" fill="black"/>
</svg>
