<svg width="55" height="55" viewBox="0 0 55 55" fill="none" xmlns="http://www.w3.org/2000/svg">
<g clip-path="url(#clip0)">
<path d="M36.9594 7.33289H29.6101V11.5735H36.9594V7.33289Z" fill="#D5F5FB"/>
<path d="M29.4175 7.33284H37.152C38.5759 7.33284 39.7302 6.17857 39.7302 4.75468C39.7302 3.33078 38.5759 2.17651 37.152 2.17651H29.4175C27.9936 2.17651 26.8394 3.33078 26.8394 4.75468C26.8394 6.17857 27.9936 7.33284 29.4175 7.33284Z" fill="#D5F5FB"/>
<path d="M33.3013 52.8241C44.6924 52.8241 53.9267 43.5899 53.9267 32.1988C53.9267 20.8078 44.6924 11.5735 33.3013 11.5735C21.9103 11.5735 12.676 20.8078 12.676 32.1988C12.676 43.5899 21.9103 52.8241 33.3013 52.8241Z" fill="#0F53FA"/>
<path d="M33.3012 47.7891C41.9115 47.7891 48.8915 40.8091 48.8915 32.1988C48.8915 23.5885 41.9115 16.6085 33.3012 16.6085C24.6909 16.6085 17.7109 23.5885 17.7109 32.1988C17.7109 40.8091 24.6909 47.7891 33.3012 47.7891Z" fill="white"/>
<path d="M33.3014 34.4627C34.5517 34.4627 35.5652 33.4491 35.5652 32.1989C35.5652 30.9486 34.5517 29.9351 33.3014 29.9351C32.0511 29.9351 31.0376 30.9486 31.0376 32.1989C31.0376 33.4491 32.0511 34.4627 33.3014 34.4627Z" fill="#D5F5FB"/>
<path d="M54.894 30.0405C54.4002 25.0734 52.1811 20.3907 48.6454 16.8549C45.6238 13.8334 41.9254 11.8917 38.0338 11.0283V8.29892C39.6233 7.90349 40.8047 6.46477 40.8047 4.7547C40.8047 2.74072 39.1663 1.10229 37.1523 1.10229H29.4178C27.4039 1.10229 25.7654 2.74072 25.7654 4.7547C25.7654 6.46466 26.9469 7.90339 28.5362 8.29892V11.036C24.6566 11.903 20.9705 13.842 17.9575 16.855C17.2981 17.5144 16.6901 18.2061 16.1335 18.9249C16.1066 18.9229 16.0796 18.9209 16.0521 18.9209H8.39698C7.80378 18.9209 7.32274 19.4018 7.32274 19.9951C7.32274 20.5884 7.80378 21.0693 8.39698 21.0693H14.6718C13.8842 22.388 13.2491 23.7727 12.7657 25.1983H1.07424C0.481043 25.1983 0 25.6792 0 26.2725C0 26.8658 0.481043 27.3467 1.07424 27.3467H12.1586C11.849 28.7057 11.6714 30.0888 11.6255 31.4758H6.87511C6.28191 31.4758 5.80087 31.9567 5.80087 32.55C5.80087 33.1433 6.28191 33.6242 6.87511 33.6242H11.6598C11.7504 35.0147 11.974 36.3979 12.3305 37.7533H5.37118C4.77799 37.7533 4.29694 38.2342 4.29694 38.8275C4.29694 39.4208 4.77799 39.9018 5.37118 39.9018H13.0161C14.0699 42.6895 15.7168 45.3024 17.9575 47.543C21.4966 51.0822 26.1842 53.3018 31.1564 53.793C31.866 53.8631 32.5762 53.8978 33.2854 53.8978C37.4773 53.8978 41.6159 52.6846 45.1276 50.3978C45.6247 50.074 45.7653 49.4085 45.4416 48.9114C45.1178 48.4142 44.4523 48.2736 43.9551 48.5974C36.2682 53.603 25.9735 52.5207 19.4766 46.0238C11.8537 38.4008 11.8537 25.9974 19.4766 18.3743C27.0995 10.7514 39.503 10.7514 47.1261 18.3743C53.6143 24.8627 54.7025 35.1486 49.7135 42.8317C49.3903 43.3293 49.5318 43.9947 50.0293 44.3177C50.5271 44.6408 51.1923 44.4994 51.5153 44.0018C54.1809 39.8966 55.3808 34.9385 54.894 30.0405ZM27.9139 4.7548C27.9139 3.92549 28.5885 3.25087 29.4178 3.25087H37.1523C37.9816 3.25087 38.6563 3.92549 38.6563 4.7548C38.6563 5.58411 37.9816 6.25873 37.1523 6.25873H36.9596H29.6104H29.4178C28.5885 6.25873 27.9139 5.58401 27.9139 4.7548ZM30.6847 10.6666V8.4072H35.8854V10.6628C34.1584 10.4574 32.4113 10.4587 30.6847 10.6666Z" fill="black"/>
<path d="M47.8862 45.7086C47.6026 45.7086 47.3266 45.8236 47.1269 46.0234C46.926 46.2232 46.812 46.5003 46.812 46.7828C46.812 47.0654 46.926 47.3425 47.1269 47.5423C47.3266 47.7432 47.6027 47.8571 47.8862 47.8571C48.1688 47.8571 48.4448 47.7432 48.6457 47.5423C48.8455 47.3425 48.9604 47.0654 48.9604 46.7828C48.9604 46.5003 48.8456 46.2232 48.6457 46.0234C48.4448 45.8236 48.1686 45.7086 47.8862 45.7086Z" fill="black"/>
<path d="M33.3012 15.5343C24.1124 15.5343 16.6367 23.0099 16.6367 32.1988C16.6367 41.3877 24.1124 48.8633 33.3012 48.8633C42.49 48.8633 49.9657 41.3877 49.9657 32.1988C49.9657 23.0099 42.49 15.5343 33.3012 15.5343ZM33.3012 46.7149C25.297 46.7149 18.7852 40.2029 18.7852 32.1988C18.7852 24.1947 25.297 17.6828 33.3012 17.6828C41.3055 17.6828 47.8173 24.1947 47.8173 32.1988C47.8173 40.2029 41.3055 46.7149 33.3012 46.7149Z" fill="black"/>
<path d="M40.0966 23.8846L34.776 29.2051C34.331 28.9851 33.8305 28.8609 33.3015 28.8609C32.7723 28.8609 32.2719 28.9851 31.827 29.2051L29.4457 26.8239C29.0261 26.4044 28.3461 26.4044 27.9264 26.8239C27.5069 27.2434 27.5069 27.9236 27.9264 28.3431L30.3077 30.7243C30.0876 31.1693 29.9634 31.6698 29.9634 32.1988C29.9634 34.0394 31.4608 35.5369 33.3015 35.5369C35.1422 35.5369 36.6396 34.0394 36.6396 32.1988C36.6396 31.6698 36.5153 31.1693 36.2953 30.7243L41.4597 25.5598L41.6158 25.4037C42.0353 24.9843 42.0353 24.3041 41.6158 23.8846C41.1963 23.4651 40.5164 23.4651 40.0966 23.8846ZM33.3015 33.3885C32.6455 33.3885 32.1119 32.8549 32.1119 32.1989C32.1119 31.543 32.6455 31.0093 33.3015 31.0093C33.9574 31.0093 34.4911 31.543 34.4911 32.1989C34.4911 32.8549 33.9574 33.3885 33.3015 33.3885Z" fill="black"/>
<path d="M44.787 31.1377H43.7917C43.1986 31.1377 42.7175 31.6186 42.7175 32.2119C42.7175 32.8052 43.1986 33.2861 43.7917 33.2861H44.787C45.3802 33.2861 45.8612 32.8052 45.8612 32.2119C45.8612 31.6186 45.3802 31.1377 44.787 31.1377Z" fill="black"/>
<path d="M22.8111 31.1115H21.8159C21.2227 31.1115 20.7417 31.5924 20.7417 32.1857C20.7417 32.779 21.2227 33.2599 21.8159 33.2599H22.8111C23.4043 33.2599 23.8853 32.779 23.8853 32.1857C23.8853 31.5924 23.4043 31.1115 22.8111 31.1115Z" fill="black"/>
<path d="M33.3145 22.7826C33.9076 22.7826 34.3887 22.3017 34.3887 21.7084V20.7133C34.3887 20.12 33.9076 19.639 33.3145 19.639C32.7213 19.639 32.2402 20.12 32.2402 20.7133V21.7084C32.2402 22.3017 32.7213 22.7826 33.3145 22.7826Z" fill="black"/>
<path d="M33.2881 41.6151C32.6949 41.6151 32.2139 42.096 32.2139 42.6893V43.6845C32.2139 44.2778 32.6949 44.7587 33.2881 44.7587C33.8813 44.7587 34.3623 44.2778 34.3623 43.6845V42.6893C34.3623 42.096 33.8813 41.6151 33.2881 41.6151Z" fill="black"/>
<path d="M1.07422 37.7528C0.791699 37.7528 0.514551 37.8677 0.314746 38.0676C0.114941 38.2674 0 38.5445 0 38.827C0 39.1106 0.114834 39.3867 0.314746 39.5865C0.514658 39.7863 0.791699 39.9012 1.07422 39.9012C1.35674 39.9012 1.63389 39.7863 1.83358 39.5865C2.03339 39.3867 2.14844 39.1095 2.14844 38.827C2.14844 38.5445 2.0335 38.2674 1.83358 38.0676C1.63389 37.8677 1.35674 37.7528 1.07422 37.7528Z" fill="black"/>
</g>
<defs>
<clipPath id="clip0">
<rect width="55" height="55" fill="white"/>
</clipPath>
</defs>
</svg>
