<svg width="55" height="55" viewBox="0 0 55 55" fill="none" xmlns="http://www.w3.org/2000/svg">
<path d="M31.6138 38.1752C31.4737 39.0328 31.2512 39.8612 30.9512 40.6536L33.642 43.0916C33.2647 43.8857 32.835 44.6488 32.3391 45.3655L28.8845 44.2518C28.3396 44.9178 27.7295 45.5271 27.0634 46.072L28.1772 49.5266C27.4605 50.0225 26.6973 50.4513 25.9033 50.8295L23.4652 48.1387C22.6729 48.4387 21.8453 48.6612 20.9868 48.8013L20.2194 52.3557C19.7854 52.3901 19.3497 52.4219 18.9062 52.4219C18.4628 52.4219 18.0271 52.3901 17.5923 52.3557L16.8248 48.8013C15.9672 48.6612 15.1388 48.4387 14.3464 48.1387L11.9084 50.8295C11.1143 50.4522 10.3512 50.0225 9.63445 49.5266L10.7482 46.072C10.0822 45.5271 9.47289 44.917 8.92805 44.2518L5.47336 45.3655C4.9775 44.6488 4.54867 43.8857 4.17055 43.0916L6.86125 40.6536C6.56133 39.8612 6.33875 39.0337 6.19867 38.1752L2.6443 37.4077C2.60992 36.9729 2.57812 36.5372 2.57812 36.0938C2.57812 35.6503 2.60992 35.2146 2.6443 34.7798L6.19867 34.0123C6.33875 33.1547 6.56133 32.3263 6.86125 31.5339L4.17055 29.0959C4.54781 28.3018 4.9775 27.5387 5.47336 26.822L8.92805 27.9357C9.47289 27.2697 10.083 26.6604 10.7491 26.1155L9.63531 22.6609C10.352 22.165 11.1152 21.7362 11.9092 21.358L14.3473 24.0487C15.1396 23.7488 15.9672 23.5262 16.8257 23.3862L17.5931 19.8318C18.0271 19.7974 18.4628 19.7656 18.9062 19.7656C19.3497 19.7656 19.7854 19.7974 20.2202 19.8318L20.9877 23.3862C21.8453 23.5262 22.6737 23.7488 23.4661 24.0487L25.9041 21.358C26.6982 21.7353 27.4613 22.165 28.178 22.6609L27.0643 26.1155C27.7303 26.6604 28.3396 27.2705 28.8845 27.9366L32.3391 26.8228C32.835 27.5395 33.2638 28.3027 33.642 29.0967L30.9512 31.5348C31.2512 32.3271 31.4737 33.1547 31.6138 34.0132L35.1682 34.7806C35.2026 35.2146 35.2344 35.6503 35.2344 36.0938C35.2344 36.5372 35.2026 36.9729 35.1682 37.4077L31.6138 38.1752ZM18.9062 27.5C14.1599 27.5 10.3125 31.3474 10.3125 36.0938C10.3125 40.8401 14.1599 44.6875 18.9062 44.6875C23.6526 44.6875 27.5 40.8401 27.5 36.0938C27.5 31.3474 23.6526 27.5 18.9062 27.5V27.5Z" fill="#454A6D"/>
<path d="M43.5351 14.0121C43.401 14.4564 43.2257 14.8827 43.01 15.284L44.367 17.8845C43.9089 18.4637 43.3864 18.9862 42.8072 19.4442L40.2067 18.0873C39.8054 18.3038 39.3791 18.4791 38.9348 18.6123L38.0548 21.4139C37.6922 21.4569 37.3261 21.4844 36.9531 21.4844C36.5802 21.4844 36.2141 21.4569 35.8523 21.4148L34.9723 18.6132C34.528 18.48 34.1017 18.3038 33.7004 18.0881L31.0999 19.4451C30.5207 18.987 29.9982 18.4645 29.5402 17.8853L30.8971 15.2848C30.6805 14.8835 30.5052 14.4573 30.372 14.013L27.5705 13.133C27.5275 12.7703 27.5 12.4042 27.5 12.0312C27.5 11.6583 27.5275 11.2922 27.5696 10.9304L30.3712 10.0504C30.5044 9.60609 30.6805 9.17984 30.8962 8.77852L29.5393 6.17805C29.9973 5.59883 30.5198 5.07633 31.0991 4.61828L33.6995 5.97523C34.1009 5.75867 34.5271 5.58336 34.9714 5.45016L35.8514 2.64859C36.2141 2.60563 36.5802 2.57812 36.9531 2.57812C37.3261 2.57812 37.6922 2.60563 38.054 2.64773L38.934 5.4493C39.3783 5.5825 39.8045 5.75867 40.2059 5.97438L42.8063 4.61742C43.3855 5.07547 43.908 5.59797 44.3661 6.17719L43.0091 8.77766C43.2257 9.17898 43.401 9.60523 43.5342 10.0495L46.3358 10.9295C46.3787 11.2922 46.4062 11.6583 46.4062 12.0312C46.4062 12.4042 46.3787 12.7703 46.3366 13.1321L43.5351 14.0121ZM36.9531 8.59375C35.0548 8.59375 33.5156 10.1329 33.5156 12.0312C33.5156 13.9296 35.0548 15.4688 36.9531 15.4688C38.8515 15.4688 40.3906 13.9296 40.3906 12.0312C40.3906 10.1329 38.8515 8.59375 36.9531 8.59375Z" fill="#0F53FA"/>
<path d="M50.4788 33.4048C50.3465 33.8817 50.16 34.3338 49.9211 34.7557L50.7762 36.5552C50.3877 37.0511 49.9417 37.4971 49.4459 37.8855L47.6463 37.0305C47.2252 37.2694 46.7723 37.4559 46.2954 37.5882L45.6268 39.4685C45.3183 39.5063 45.0063 39.5312 44.6875 39.5312C44.3687 39.5312 44.0567 39.5063 43.7482 39.4685L43.0796 37.5882C42.6027 37.4559 42.1506 37.2694 41.7287 37.0305L39.9291 37.8855C39.4333 37.4971 38.9873 37.0511 38.5988 36.5552L39.4539 34.7557C39.215 34.3346 39.0285 33.8817 38.8962 33.4056L37.0159 32.737C36.978 32.4277 36.9531 32.1157 36.9531 31.7969C36.9531 31.478 36.978 31.1661 37.0159 30.8576L38.8962 30.189C39.0285 29.712 39.215 29.26 39.4539 28.8389L38.5988 27.0394C38.9873 26.5435 39.4333 26.0975 39.9291 25.7091L41.7287 26.5641C42.1498 26.3252 42.6027 26.1387 43.0796 26.0064L43.7482 24.1261C44.0567 24.0874 44.3687 24.0625 44.6875 24.0625C45.0063 24.0625 45.3183 24.0874 45.6268 24.1252L46.2954 26.0055C46.7723 26.1379 47.2244 26.3244 47.6463 26.5633L49.4459 25.7082C49.9417 26.0966 50.3877 26.5427 50.7762 27.0385L49.9211 28.838C50.16 29.2591 50.3465 29.712 50.4788 30.189L52.3591 30.8576C52.397 31.1661 52.4219 31.478 52.4219 31.7969C52.4219 32.1157 52.397 32.4277 52.3591 32.7362L50.4788 33.4048ZM44.6875 29.2188C43.2635 29.2188 42.1094 30.3729 42.1094 31.7969C42.1094 33.2209 43.2635 34.375 44.6875 34.375C46.1115 34.375 47.2656 33.2209 47.2656 31.7969C47.2656 30.3729 46.1115 29.2188 44.6875 29.2188Z" fill="#D5F5FB"/>
<path d="M52.5901 4.31407L47.4502 3.28625L46.4224 8.42532L48.1076 8.76305L48.5708 6.44961C49.4035 8.18211 49.8435 10.0916 49.8435 12.0313C49.8435 14.9944 48.8656 17.7805 47.0162 20.0879L48.3577 21.163C50.4245 18.584 51.5623 15.3416 51.5623 12.0313C51.5623 9.78055 51.0424 7.56165 50.0532 5.5593L52.2532 5.9993L52.5901 4.31407Z" fill="#454A6D"/>
<path d="M20.3731 11.4236L19.1579 12.6388L20.3258 13.8067C19.8532 13.7766 19.3797 13.75 18.9061 13.75C12.258 13.75 6.00005 16.6813 1.73755 21.7929L3.05755 22.8937C6.99263 18.1749 12.7685 15.4687 18.9061 15.4687C19.3436 15.4687 19.7801 15.4936 20.2167 15.5211L19.1579 16.5799L20.3731 17.7951L23.5588 14.6093L20.3731 11.4236Z" fill="#454A6D"/>
</svg>
