<svg width="55" height="55" viewBox="0 0 55 55" fill="none" xmlns="http://www.w3.org/2000/svg">
<g clip-path="url(#clip0)">
<path d="M36.5666 33.25C36.5666 44.7446 28.5587 54.0625 18.6809 54.0625C8.80271 54.0625 0.795166 44.7446 0.795166 33.25V14.5C0.795166 14.1553 1.03561 13.875 1.33228 13.875H1.54712C6.88632 13.875 11.2151 8.83837 11.2151 2.625V1.5625C11.2151 1.21777 11.4555 0.9375 11.7522 0.9375H25.6096C25.9059 0.9375 26.1467 1.21777 26.1467 1.5625V2.91699C26.1467 9.12988 30.4751 14.167 35.8147 14.167H36.0295C36.3258 14.167 36.5666 14.4468 36.5666 14.792V33.25Z" fill="#0F53FA"/>
<path d="M18.6272 4.625V50.3125C10.5584 50.3125 4.01782 42.7016 4.01782 33.3125V16.875C9.64404 16.875 14.2049 11.5679 14.2049 5.021V4.625H18.6272Z" fill="#0F53FA"/>
<path d="M36.5666 14.7915V33.25C36.5666 44.7451 28.5591 54.0625 18.6809 54.0625C18.1371 54.0625 17.6 54.0337 17.0696 53.979C26.1929 53.0312 33.344 44.1128 33.344 33.25V14.7915C33.344 14.4463 33.1031 14.1665 32.8069 14.1665H32.592C27.252 14.1665 22.9241 9.13037 22.9241 2.9165V1.5625C22.9241 1.21777 22.6832 0.9375 22.387 0.9375H25.6096C25.9059 0.9375 26.1467 1.21777 26.1467 1.5625V2.9165C26.1467 9.13037 30.4747 14.1665 35.8147 14.1665H36.0295C36.3258 14.1665 36.5666 14.4463 36.5666 14.7915Z" fill="#0F53FA"/>
<path d="M19.6477 39.1875H14.0081C13.296 39.1875 12.719 38.5161 12.719 37.6875V21.5625C12.719 20.7344 13.296 20.0625 14.0081 20.0625H19.6477V39.1875Z" fill="#D5F5FB"/>
<path d="M42.9397 41.436H46.9189C47.9726 41.436 48.8672 40.4326 48.8475 39.207C48.8286 38.018 47.9944 37.061 46.968 37.061H49.8105C51.121 37.061 52.2371 35.8755 52.2841 34.3511C52.3328 32.7514 51.2326 31.436 49.8684 31.436H51.7441C53.055 31.436 54.1711 30.2505 54.2177 28.7261C54.2664 27.1265 53.1662 25.811 51.8024 25.811H49.8688C51.233 25.811 52.3332 24.4961 52.2841 22.896C52.2376 21.3721 51.1214 20.186 49.8105 20.186H43.1612C42.8646 20.186 42.6241 19.9067 42.6241 19.5615L42.6174 8.12353C42.6174 6.2251 41.2952 4.68604 39.6633 4.68604C38.0319 4.68604 36.7092 6.2251 36.7092 8.12353V11.0679C36.7092 13.2046 35.771 15.1934 34.2217 16.3408L29.8204 19.6001C29.3034 19.9829 28.7029 20.186 28.0903 20.186H25.3225L26.2608 39.4922L27.9757 40.623C28.7831 41.1562 29.6958 41.436 30.6244 41.436H42.8864" fill="#D5F5FB"/>
<path d="M24.7502 41.0625H20.2385C19.3485 41.0625 18.6272 40.2231 18.6272 39.1875V20.0625C18.6272 19.0273 19.3485 18.1875 20.2385 18.1875H24.7502C25.6398 18.1875 26.3616 19.0273 26.3616 20.0625V39.1875C26.3616 40.2231 25.6402 41.0625 24.7502 41.0625Z" fill="#D5F5FB"/>
<path d="M54.1825 28.7275C54.1351 30.2515 53.0193 31.4375 51.7085 31.4375H49.8332C51.1974 31.4375 52.2972 32.7524 52.2489 34.3525C52.2015 35.8765 51.0857 37.0625 49.7749 37.0625H46.9328C47.9584 37.0625 48.7934 38.019 48.8127 39.209C48.832 40.4341 47.937 41.4375 46.8833 41.4375H43.6606C44.7143 41.4375 45.6093 40.4341 45.59 39.209C45.5707 38.019 44.7357 37.0625 43.7102 37.0625H46.5522C47.8631 37.0625 48.9789 35.8765 49.0263 34.3525C49.0745 32.7524 47.9747 31.4375 46.6105 31.4375H48.4858C49.7967 31.4375 50.9124 30.2515 50.9599 28.7275C51.0081 27.1274 49.9083 25.8125 48.5441 25.8125H46.6105C47.9747 25.8125 49.0745 24.4976 49.0263 22.8975C48.9789 21.374 47.8631 20.1875 46.5522 20.1875H49.7749C51.0857 20.1875 52.2015 21.374 52.2489 22.8975C52.2972 24.4976 51.1974 25.8125 49.8332 25.8125H51.7668C53.131 25.8125 54.2308 27.1274 54.1825 28.7275Z" fill="#D5F5FB"/>
<path d="M43.155 20.1875H39.9391C39.6424 20.1875 39.402 19.9077 39.402 19.5625L39.3953 8.125C39.3953 6.91895 38.8615 5.85645 38.0525 5.24512C38.5157 4.89258 39.0688 4.6875 39.6638 4.6875C41.2957 4.6875 42.6179 6.22656 42.6179 8.125L42.6246 19.5625C42.6246 19.9053 42.8617 20.1841 43.155 20.1875Z" fill="#D5F5FB"/>
<path d="M26.3616 20.0625V39.1875C26.3616 40.2226 25.6394 41.0625 24.7502 41.0625H21.5276C22.4168 41.0625 23.1389 40.2226 23.1389 39.1875V20.0625C23.1389 19.0278 22.4168 18.1875 21.5276 18.1875H24.7502C25.6394 18.1875 26.3616 19.0278 26.3616 20.0625Z" fill="white"/>
<path d="M54.0965 26.0212C53.6736 25.5115 53.1503 25.1594 52.5767 24.9905C52.917 24.3611 53.0878 23.6277 53.0643 22.8645C53.0034 20.8718 51.5327 19.2502 49.7858 19.2502H43.4047L43.3984 8.12524C43.3984 5.71313 41.712 3.75024 39.6387 3.75024C37.5653 3.75024 35.8789 5.71313 35.8789 8.12524V11.0696C35.8789 11.8249 35.7417 12.5539 35.4891 13.2195C30.7579 13.0129 26.9629 8.47192 26.9629 2.91675V1.56274C26.9629 0.700927 26.3607 0.000244141 25.6201 0.000244141H11.7627C11.0221 0.000244141 10.4199 0.700927 10.4199 1.56274V2.62524C10.4199 8.31176 6.44447 12.9377 1.55762 12.9377H1.34277C0.60215 12.9377 0 13.6384 0 14.5002V33.2502C0 45.2434 8.38478 55.0002 18.6914 55.0002C26.0024 55.0002 32.6076 50.0647 35.6624 42.3752H46.8938C47.6269 42.3752 48.3436 42.0237 48.8602 41.4114C49.3687 40.8083 49.6419 40.0198 49.6285 39.1907C49.6218 38.7688 49.5416 38.3664 49.4023 38.0002H49.7858C51.5327 38.0002 53.0034 36.3786 53.0643 34.386C53.0878 33.6164 52.9145 32.8777 52.5683 32.2449C53.9195 31.822 54.9475 30.4201 54.9979 28.761C55.0294 27.7331 54.7092 26.76 54.0965 26.0212V26.0212ZM18.6914 53.1252C9.27353 53.1252 1.61133 44.2092 1.61133 33.2502V14.8127C7.36175 14.7786 12.0312 9.32446 12.0312 2.62524V1.87524H25.3516V2.91675C25.3516 9.07202 29.293 14.175 34.393 14.99C34.1996 15.1951 33.9906 15.384 33.7644 15.5515L29.3631 18.8103C28.9745 19.0984 28.526 19.2502 28.0656 19.2502H27.0745C26.7741 18.0945 25.8509 17.2502 24.7607 17.2502H20.249C19.1987 17.2502 18.3033 18.0339 17.9705 19.1252H14.0185C12.8633 19.1252 11.9238 20.219 11.9238 21.5627V37.6877C11.9238 39.032 12.8633 40.1252 14.0185 40.1252H17.832V49.3484C10.5941 48.8611 4.83398 41.8552 4.83398 33.3127V17.779C10.3679 17.3103 14.7781 12.0544 15.0114 5.56274H17.832V13.8127C17.832 14.3308 18.1929 14.7502 18.6377 14.7502C19.0825 14.7502 19.4434 14.3308 19.4434 13.8127V4.62524C19.4434 4.10718 19.0825 3.68774 18.6377 3.68774H14.2153C13.7706 3.68774 13.4097 4.10718 13.4097 4.62524V5.02124C13.4097 11.0408 9.20135 15.9377 4.02832 15.9377C3.58353 15.9377 3.22266 16.3572 3.22266 16.8752V33.3127C3.22266 43.2033 10.1379 51.2502 18.6377 51.2502C19.0825 51.2502 19.4434 50.8308 19.4434 50.3127V41.904C19.6318 41.9651 19.8294 42.0002 20.0342 42.0002H24.7607C25.5505 42.0002 26.2529 41.5574 26.6939 40.8738L27.5533 41.4402C28.4806 42.052 29.5339 42.3752 30.5993 42.3752H33.8689C30.9501 48.9499 25.1195 53.1252 18.6914 53.1252V53.1252ZM17.832 38.2502H14.0185C13.7521 38.2502 13.5352 37.9978 13.5352 37.6877V21.5627C13.5352 21.2527 13.7521 21.0002 14.0185 21.0002H17.832V38.2502ZM51.7194 30.5002H45.4394C44.9946 30.5002 44.6338 30.9197 44.6338 31.4377C44.6338 31.9558 44.9946 32.3752 45.4394 32.3752H49.8437C50.2847 32.3752 50.6968 32.5788 51.0036 32.9485C51.3099 33.3176 51.4697 33.8049 51.4538 34.3196C51.4236 35.3152 50.675 36.1252 49.7858 36.1252H46.9433C46.9253 36.1252 46.9073 36.1272 46.8896 36.1282C46.872 36.1272 46.854 36.1252 46.8359 36.1252H45.4394C44.9946 36.1252 44.6338 36.5447 44.6338 37.0627C44.6338 37.5808 44.9946 38.0002 45.4394 38.0002H46.8359C46.854 38.0002 46.872 37.9983 46.8896 37.9973C46.9073 37.9983 46.9253 38.0002 46.9433 38.0002C47.5245 38.0002 48.0067 38.55 48.0176 39.2263C48.0226 39.5476 47.9135 39.8572 47.7104 40.0984C47.4947 40.3537 47.1972 40.5002 46.8942 40.5002H30.5993C29.8117 40.5002 29.0333 40.2615 28.348 39.8093L27.1777 39.0373V36.9167C27.1777 36.3992 26.8169 35.9792 26.3721 35.9792C25.9273 35.9792 25.5664 36.3992 25.5664 36.9167V39.1877C25.5664 39.7048 25.2051 40.1252 24.7607 40.1252H20.0342C19.7086 40.1252 19.4434 39.8166 19.4434 39.4377V20.0627C19.4434 19.5456 19.8046 19.1252 20.249 19.1252H24.7607C25.2051 19.1252 25.5664 19.5456 25.5664 20.0627V32.5417C25.5664 33.0598 25.9273 33.4792 26.3721 33.4792C26.8169 33.4792 27.1777 33.0598 27.1777 32.5417V21.1252H28.0656C28.8327 21.1252 29.5809 20.8718 30.2279 20.3923L34.6297 17.133C36.421 15.8069 37.4902 13.5398 37.4902 11.0696V8.12524C37.4902 6.74682 38.4541 5.62524 39.6387 5.62524C40.8232 5.62524 41.7871 6.74682 41.7871 8.12573L41.7934 19.5637C41.7938 20.4245 42.3964 21.1252 43.1362 21.1252H49.7858C50.675 21.1252 51.4236 21.9353 51.4538 22.9309C51.4697 23.4455 51.3095 23.9328 51.0036 24.302C50.6968 24.6716 50.2847 24.8752 49.8437 24.8752H45.4394C44.9946 24.8752 44.6338 25.2947 44.6338 25.8127C44.6338 26.3308 44.9946 26.7502 45.4394 26.7502H51.7773C52.2183 26.7502 52.6304 26.9538 52.9371 27.3235C53.2435 27.6926 53.4033 28.1799 53.3874 28.6946C53.3572 29.6902 52.6086 30.5002 51.7194 30.5002V30.5002Z" fill="black"/>
</g>
<defs>
<clipPath id="clip0">
<rect width="55" height="55" fill="white"/>
</clipPath>
</defs>
</svg>
